<svg id="Layer_1" viewBox="0 0 1 70" xmlns="http://www.w3.org/2000/svg" data-name="Layer 1"><path d="m42.73 30.48v26.49a1 1 0 0 1 -.47.85l-9.74 6.03a1.011 1.011 0 0 1 -1.06 0l-9.72-6.03a1 1 0 0 1 -.47-.85v-26.49h1.85a11.722 11.722 0 0 0 17.76 0z" fill="#d90429"></path><path d="m37.78 22.76a5.78 5.78 0 1 1 -5.78-5.78 5.774 5.774 0 0 1 5.78 5.78z" fill="#ef233c"></path><path d="m32 0a22.759 22.759 0 1 0 22.76 22.76 22.76 22.76 0 0 0 -22.76-22.76zm8.88 30.48a11.8 11.8 0 1 1 2.87-7.72 11.7 11.7 0 0 1 -2.87 7.72z" fill="#ef233c"></path><path d="m37.78 22.76a5.78 5.78 0 1 1 -5.78-5.78 5.774 5.774 0 0 1 5.78 5.78z" fill="#fff"></path><path d="m37.78 22.76a5.78 5.78 0 1 1 -5.78-5.78 5.774 5.774 0 0 1 5.78 5.78z" fill="#d90429"></path></svg>